<?xml version="1.0" encoding="UTF-8" standalone="no"?>
<!-- Created with Inkscape (http://www.inkscape.org/) -->

<svg
   width="1124"
   height="100"
   viewBox="0 0 297.39167 26.458333"
   version="1.1"
   id="svg1"
   inkscape:version="1.4 (e7c3feb, 2024-10-09)"
   sodipodi:docname="nifr-name-logo-work.svg"
   inkscape:export-filename="nifr-name-logo.svg"
   inkscape:export-xdpi="96"
   inkscape:export-ydpi="96"
   xmlns:inkscape="http://www.inkscape.org/namespaces/inkscape"
   xmlns:sodipodi="http://sodipodi.sourceforge.net/DTD/sodipodi-0.dtd"
   xmlns="http://www.w3.org/2000/svg"
   xmlns:svg="http://www.w3.org/2000/svg">
  <sodipodi:namedview
     id="namedview1"
     pagecolor="#505050"
     bordercolor="#eeeeee"
     borderopacity="1"
     inkscape:showpageshadow="0"
     inkscape:pageopacity="0"
     inkscape:pagecheckerboard="0"
     inkscape:deskcolor="#505050"
     inkscape:document-units="px"
     inkscape:zoom="1.2674155"
     inkscape:cx="594.51695"
     inkscape:cy="-34.321815"
     inkscape:window-width="2510"
     inkscape:window-height="1371"
     inkscape:window-x="50"
     inkscape:window-y="32"
     inkscape:window-maximized="1"
     inkscape:current-layer="layer2" />
  <defs
     id="defs1" />
  <g
     inkscape:groupmode="layer"
     id="layer2"
     inkscape:label="Path"
     style="display:inline">
    <path
       style="font-weight:600;font-size:34.1312px;font-family:'Noto Sans JP';-inkscape-font-specification:'Noto Sans JP Semi-Bold';letter-spacing:-1.32292px;stroke-width:0.416261"
       d="M 0.9566435,26.432631 V 1.2096746 H 5.5643553 L 13.3804,15.339991 16.008502,20.73272 h 0.170656 q -0.204787,-1.945478 -0.409574,-4.198137 -0.204787,-2.28679 -0.204787,-4.402925 V 1.2096746 h 4.266399 V 26.432631 H 15.223485 L 7.4415713,12.268183 4.813469,6.943716 H 4.6769442 q 0.1365248,1.9796095 0.341312,4.198137 0.2047872,2.184397 0.2047872,4.300531 v 10.990247 z m 24.0023845,0 V 1.2096746 h 15.188383 v 3.788563 H 29.464346 v 6.4166654 h 9.044768 v 3.788563 h -9.044768 v 7.440601 h 11.058508 v 3.788564 z m 19.42884,0 V 1.2096746 h 4.505319 V 12.643626 H 48.99558 L 57.937954,1.2096746 h 5.017287 l -7.781914,9.8297854 9.078899,15.393171 h -4.949024 l -6.82624,-11.843526 -3.583775,4.505318 v 7.338208 z M 67.502858,18.104618 66.854365,4.9982376 66.71784,0.59531298 h 4.505319 L 71.086634,4.9982376 70.472272,18.104618 Z m 1.467642,8.805849 q -1.228724,0 -2.047872,-0.85328 -0.819149,-0.887411 -0.819149,-2.184396 0,-1.331117 0.819149,-2.150266 0.819148,-0.85328 2.047872,-0.85328 1.262854,0 2.047871,0.85328 0.819149,0.819149 0.819149,2.150266 0,1.296985 -0.819149,2.184396 -0.785017,0.85328 -2.047871,0.85328 z M 83.356073,26.432631 V 1.2096746 h 15.222515 v 3.788563 H 87.861391 v 7.1334204 h 9.147161 v 3.788563 h -9.147161 v 10.51241 z m 20.996737,0.477836 q -1.67243,0 -2.93528,-0.716755 -1.22873,-0.716755 -1.945482,-1.945478 -0.716755,-1.262855 -0.716755,-2.901152 0,-3.071808 2.662237,-4.710106 2.66223,-1.672428 8.46453,-2.320921 -0.0341,-1.023936 -0.37544,-1.843085 -0.30718,-0.85328 -1.05807,-1.331117 -0.71675,-0.511968 -1.97961,-0.511968 -1.43351,0 -2.76462,0.5461 -1.33112,0.546099 -2.59397,1.331116 L 99.506179,9.5035559 q 1.058071,-0.6484928 2.252661,-1.194592 1.22872,-0.5802303 2.59397,-0.9215423 1.39938,-0.3754432 2.90115,-0.3754432 2.38919,0 3.95922,0.9556735 1.57004,0.9556736 2.35505,2.7987581 0.78502,1.808954 0.78502,4.437056 v 11.229165 h -3.65204 l -0.34131,-2.082004 h -0.13652 q -1.26286,1.058068 -2.7305,1.808954 -1.46764,0.750886 -3.14007,0.750886 z m 1.43351,-3.549644 q 1.12633,0 2.082,-0.511968 0.98981,-0.5461 2.01374,-1.501773 v -4.232269 q -2.55984,0.307181 -4.06161,0.85328 -1.50177,0.546099 -2.15026,1.331117 -0.61437,0.750886 -0.61437,1.70656 0,1.262854 0.75089,1.808953 0.78502,0.5461 1.97961,0.5461 z m 12.56842,3.071808 V 7.4898152 h 3.65204 l 0.37545,2.5598398 h 0.0683 q 1.26285,-1.2628543 2.76463,-2.1502655 1.50177,-0.8874111 3.44725,-0.8874111 3.03767,0 4.43705,1.9796095 1.39938,1.9796091 1.39938,5.5633851 v 11.877658 h -4.47119 V 15.135204 q 0,-2.355053 -0.71675,-3.310727 -0.68262,-0.955673 -2.21853,-0.955673 -1.22872,0 -2.1844,0.614361 -0.92154,0.580231 -2.082,1.70656 v 13.242906 z m 27.01417,0 V 1.2096746 h 8.49866 q 2.66224,0 4.74424,0.7167551 2.11613,0.682624 3.31073,2.3209216 1.22872,1.6382975 1.22872,4.4370558 0,2.7304959 -1.22872,4.5053179 -1.1946,1.740692 -3.31073,2.593971 -2.082,0.819149 -4.74424,0.819149 h -3.99335 v 9.829786 z m 4.50531,-13.413562 h 3.51552 q 2.59397,0 3.95922,-1.092198 1.39938,-1.092198 1.39938,-3.2424639 0,-2.1502655 -1.39938,-3.0035455 -1.36525,-0.85328 -3.95922,-0.85328 h -3.51552 z m 9.21543,13.413562 -6.07536,-11.024378 3.24247,-2.730496 7.8843,13.754874 z m 14.94528,0.477836 q -2.6281,0 -4.74423,-1.194592 -2.11614,-1.194592 -3.37899,-3.41312 -1.22872,-2.218527 -1.22872,-5.324467 0,-2.320921 0.71675,-4.129875 0.75089,-1.843084 1.97961,-3.1400699 1.26285,-1.3311168 2.79876,-2.0137407 1.57003,-0.682624 3.24246,-0.682624 2.55984,0 4.30053,1.1604607 1.74069,1.1263296 2.62811,3.1742019 0.88741,2.01374 0.88741,4.675974 0,0.648493 -0.0683,1.228723 -0.0341,0.546099 -0.13652,0.921542 h -11.98005 q 0.17065,1.672429 0.92154,2.83289 0.75089,1.160461 1.91135,1.808953 1.19459,0.614362 2.73049,0.614362 1.1946,0 2.25266,-0.341312 1.05807,-0.375443 2.11614,-1.023936 l 1.5359,2.798758 q -1.33112,0.887412 -3.00354,1.467642 -1.67243,0.58023 -3.48139,0.58023 z m -5.05141,-11.775263 h 8.4304 q 0,-2.150266 -0.9898,-3.378989 -0.98981,-1.262854 -2.93529,-1.262854 -1.05806,0 -2.01374,0.546099 -0.95567,0.511968 -1.63829,1.535904 -0.6485,1.023936 -0.85328,2.55984 z m 20.48691,11.775263 q -1.94548,0 -3.85683,-0.750886 -1.91134,-0.750886 -3.31072,-1.911347 l 2.04787,-2.867021 q 1.26285,0.989805 2.52571,1.570035 1.26285,0.580231 2.69636,0.580231 1.53591,0 2.28679,-0.648493 0.75089,-0.648493 0.75089,-1.638298 0,-0.785017 -0.61436,-1.296985 -0.58023,-0.546099 -1.53591,-0.955674 -0.92154,-0.409574 -1.91134,-0.785017 -1.22873,-0.477837 -2.42332,-1.160461 -1.19459,-0.682624 -1.97961,-1.740691 -0.78502,-1.058067 -0.78502,-2.628103 0,-1.638297 0.81915,-2.9011515 0.85328,-1.2969856 2.38919,-2.0137408 1.57003,-0.7508863 3.68617,-0.7508863 1.97961,0 3.54964,0.682624 1.60417,0.6826239 2.7305,1.6041663 l -2.04788,2.7304963 q -0.9898,-0.716756 -2.01374,-1.160461 -1.02393,-0.477837 -2.11613,-0.477837 -1.43351,0 -2.11613,0.614362 -0.68263,0.58023 -0.68263,1.467641 0,0.750887 0.51197,1.228723 0.5461,0.477837 1.43351,0.85328 0.88741,0.341312 1.91135,0.716756 0.9898,0.375443 1.94548,0.819148 0.95567,0.443706 1.74069,1.092199 0.78501,0.648492 1.22872,1.570035 0.47784,0.921542 0.47784,2.252659 0,1.638297 -0.85328,3.003545 -0.81915,1.331117 -2.45745,2.116135 -1.6383,0.785017 -4.02748,0.785017 z m 17.75641,0 q -2.35505,0 -4.43706,-1.16046 -2.04787,-1.194592 -3.31072,-3.41312 -1.26286,-2.252659 -1.26286,-5.358599 0,-3.174201 1.26286,-5.392729 1.26285,-2.2185279 3.31072,-3.3789887 2.08201,-1.1945919 4.43706,-1.1945919 1.77482,0 3.37899,0.682624 1.6383,0.6484927 2.90115,1.9454783 1.26286,1.2628543 1.97961,3.1059393 0.75089,1.843085 0.75089,4.232268 0,3.10594 -1.26286,5.358599 -1.26285,2.218528 -3.34486,3.41312 -2.04787,1.16046 -4.40292,1.16046 z m 0,-3.686169 q 1.39938,0 2.38918,-0.750887 0.98981,-0.785017 1.50178,-2.184396 0.5461,-1.433511 0.5461,-3.310727 0,-1.911347 -0.5461,-3.310726 -0.51197,-1.43351 -1.50178,-2.184397 -0.9898,-0.785017 -2.38918,-0.785017 -1.36525,0 -2.35505,0.785017 -0.98981,0.750887 -1.53591,2.184397 -0.51196,1.399379 -0.51196,3.310726 0,1.877216 0.51196,3.310727 0.5461,1.399379 1.53591,2.184396 0.9898,0.750887 2.35505,0.750887 z m 17.72224,3.686169 q -3.0718,0 -4.47118,-1.979609 -1.39938,-1.97961 -1.39938,-5.563386 V 7.4898152 h 4.47119 V 18.821373 q 0,2.286791 0.68262,3.276595 0.71675,0.955674 2.25266,0.955674 1.22872,0 2.1844,-0.614362 0.95567,-0.614361 2.01374,-1.979609 V 7.4898152 h 4.47118 V 26.432631 h -3.68617 l -0.34131,-2.798759 h -0.10239 q -1.26286,1.467642 -2.69637,2.389184 -1.43351,0.887411 -3.37899,0.887411 z m 14.51396,-0.477836 V 7.4898152 h 3.65203 l 0.37545,3.3789888 h 0.0683 q 1.02394,-1.8430849 2.45745,-2.8328897 1.43351,-1.0239359 2.93528,-1.0239359 0.75089,0 1.22872,0.1023936 0.51197,0.1023936 0.92155,0.3071808 l -0.75089,3.8568252 q -0.51197,-0.136525 -0.95567,-0.204787 -0.40958,-0.102394 -1.02394,-0.102394 -1.0922,0 -2.35505,0.887412 -1.22873,0.887411 -2.08201,3.037676 v 11.536346 z m 20.44039,0.477836 q -2.59397,0 -4.67597,-1.16046 -2.04787,-1.194592 -3.27659,-3.41312 -1.1946,-2.252659 -1.1946,-5.358599 0,-3.174201 1.33112,-5.392729 1.33112,-2.2185279 3.48138,-3.3789887 2.1844,-1.1945919 4.71011,-1.1945919 1.77482,0 3.14007,0.6143616 1.36525,0.6143615 2.38918,1.5359039 l -2.15026,2.8670211 q -0.75089,-0.648493 -1.50178,-0.989805 -0.75088,-0.341312 -1.63829,-0.341312 -1.50178,0 -2.69637,0.785017 -1.16046,0.750887 -1.80895,2.184397 -0.64849,1.399379 -0.64849,3.310726 0,1.877216 0.64849,3.310727 0.64849,1.399379 1.77482,2.184396 1.12633,0.750887 2.55984,0.750887 1.12633,0 2.11613,-0.443706 0.98981,-0.477837 1.80896,-1.160461 l 1.80895,2.969415 q -1.33112,1.160461 -2.96941,1.740691 -1.60417,0.58023 -3.20834,0.58023 z m 15.58077,0 q -2.6281,0 -4.74424,-1.194592 -2.11613,-1.194592 -3.37899,-3.41312 -1.22872,-2.218527 -1.22872,-5.324467 0,-2.320921 0.71675,-4.129875 0.75089,-1.843084 1.97961,-3.1400699 1.26286,-1.3311168 2.79876,-2.0137407 1.57004,-0.682624 3.24247,-0.682624 2.55984,0 4.30053,1.1604607 1.74069,1.1263296 2.6281,3.1742019 0.88741,2.01374 0.88741,4.675974 0,0.648493 -0.0683,1.228723 -0.0341,0.546099 -0.13653,0.921542 H 270.501 q 0.17066,1.672429 0.92155,2.83289 0.75088,1.160461 1.91134,1.808953 1.19459,0.614362 2.7305,0.614362 1.19459,0 2.25266,-0.341312 1.05806,-0.375443 2.11613,-1.023936 l 1.53591,2.798758 q -1.33112,0.887412 -3.00355,1.467642 -1.67243,0.58023 -3.48138,0.58023 z m -5.05142,-11.775263 h 8.43041 q 0,-2.150266 -0.98981,-3.378989 -0.9898,-1.262854 -2.93528,-1.262854 -1.05807,0 -2.01374,0.546099 -0.95568,0.511968 -1.6383,1.535904 -0.64849,1.023936 -0.85328,2.55984 z m 20.48691,11.775263 q -1.94548,0 -3.85682,-0.750886 -1.91135,-0.750886 -3.31073,-1.911347 l 2.04787,-2.867021 q 1.26286,0.989805 2.52571,1.570035 1.26286,0.580231 2.69637,0.580231 1.5359,0 2.28679,-0.648493 0.75088,-0.648493 0.75088,-1.638298 0,-0.785017 -0.61436,-1.296985 -0.58023,-0.546099 -1.5359,-0.955674 -0.92154,-0.409574 -1.91135,-0.785017 -1.22872,-0.477837 -2.42331,-1.160461 -1.1946,-0.682624 -1.97961,-1.740691 -0.78502,-1.058067 -0.78502,-2.628103 0,-1.638297 0.81915,-2.9011515 0.85328,-1.2969856 2.38918,-2.0137408 1.57004,-0.7508863 3.68617,-0.7508863 1.97961,0 3.54965,0.682624 1.60416,0.6826239 2.73049,1.6041663 l -2.04787,2.7304963 q -0.98981,-0.716756 -2.01374,-1.160461 -1.02394,-0.477837 -2.11614,-0.477837 -1.43351,0 -2.11613,0.614362 -0.68262,0.58023 -0.68262,1.467641 0,0.750887 0.51196,1.228723 0.5461,0.477837 1.43351,0.85328 0.88742,0.341312 1.91135,0.716756 0.98981,0.375443 1.94548,0.819148 0.95567,0.443706 1.74069,1.092199 0.78502,0.648492 1.22872,1.570035 0.47784,0.921542 0.47784,2.252659 0,1.638297 -0.85328,3.003545 -0.81915,1.331117 -2.45745,2.116135 -1.63829,0.785017 -4.02748,0.785017 z"
       id="text1"
       inkscape:label="text1"
       transform="translate(-0.95664361)"
       aria-label="NEK! Fan Resources" />
  </g>
  <g
     inkscape:label="Text"
     inkscape:groupmode="layer"
     id="layer1"
     transform="translate(-0.95664361)">
    <text
       xml:space="preserve"
       style="font-style:normal;font-variant:normal;font-weight:600;font-stretch:normal;font-size:34.1312px;font-family:'Roboto Condensed';-inkscape-font-specification:'Roboto Condensed,  Semi-Bold';text-align:start;letter-spacing:-1.32292px;writing-mode:lr-tb;direction:ltr;text-anchor:start;display:none;fill:#000000;stroke-width:0.416261"
       x="-2.2516892"
       y="26.432631"
       id="text2"
       inkscape:label="text1"><tspan
         sodipodi:role="line"
         id="tspan2"
         style="font-style:normal;font-variant:normal;font-weight:600;font-stretch:normal;font-size:34.1312px;font-family:'Noto Sans JP';-inkscape-font-specification:'Noto Sans JP Semi-Bold';letter-spacing:-1.32292px;stroke-width:0.416261"
         x="-2.2516892"
         y="26.432631">NEK! Fan Resources</tspan></text>
  </g>
</svg>
