<?xml version="1.0" encoding="UTF-8" standalone="no"?>
<!-- Created with Inkscape (http://www.inkscape.org/) -->

<svg
   width="190"
   height="60"
   viewBox="0 0 50.270832 15.875"
   version="1.1"
   id="svg1"
   inkscape:version="1.4.1 (93de688, 2025-03-30)"
   sodipodi:docname="neki.svg"
   xmlns:inkscape="http://www.inkscape.org/namespaces/inkscape"
   xmlns:sodipodi="http://sodipodi.sourceforge.net/DTD/sodipodi-0.dtd"
   xmlns="http://www.w3.org/2000/svg"
   xmlns:svg="http://www.w3.org/2000/svg">
  <sodipodi:namedview
     id="namedview1"
     pagecolor="#505050"
     bordercolor="#eeeeee"
     borderopacity="1"
     inkscape:showpageshadow="0"
     inkscape:pageopacity="0"
     inkscape:pagecheckerboard="0"
     inkscape:deskcolor="#505050"
     inkscape:document-units="mm"
     inkscape:zoom="5.8608518"
     inkscape:cx="128.22368"
     inkscape:cy="43.594346"
     inkscape:window-width="2510"
     inkscape:window-height="1371"
     inkscape:window-x="1250"
     inkscape:window-y="342"
     inkscape:window-maximized="1"
     inkscape:current-layer="svg1" />
  <defs
     id="defs1" />
  <path
     id="path50"
     style="display:inline;fill:#000000;fill-opacity:1;stroke:none;stroke-width:0.04;stroke-dasharray:none;stroke-opacity:0.724958"
     inkscape:label="NEK!"
     d="m 1.0045148,10.993658 c -0.31837444,0.451265 -0.25627604,0.847387 0.2116701,0.847386 l 2.7428417,10e-7 c 0.3780114,0 1.0128907,0.05132 1.6291789,-0.822208 L 6.8719963,9.1991875 C 7.1400761,8.8192105 7.4268259,8.7752655 7.5995617,9.0807815 L 8.956533,11.480839 c 0.195844,0.346386 0.336944,0.381496 0.735243,0.381496 h 2.917715 c 0.379473,1e-6 1.094275,-0.06254 1.754063,-0.997721 l 4.83324,-6.8506475 c 0.343427,-0.486775 0.282213,-0.882881 -0.293899,-0.882881 h -2.606088 c -0.379473,-1e-6 -1.094275,0.06254 -1.754063,0.997721 l -1.477028,2.093551 c -0.528114,0.748543 -0.807549,0.430863 -0.929745,0.214738 L 9.003983,0.8975875 C 8.736046,0.4236895 8.336638,0.6010835 8.057801,0.9963075 Z m 13.7164482,0.510757 c -0.207776,0.294503 -0.272168,0.57779 -0.100563,0.881305 l 1.557792,2.755248 c 0.13096,0.231628 0.486751,0.125878 0.705796,-0.184597 l 1.906479,-2.702249 c 0.164963,-0.233819 0.394714,-0.391786 0.645922,-0.391787 l 4.350136,2e-6 c 0.379473,10e-7 1.094275,-0.06254 1.754063,-0.997721 l 0.353215,-0.500649 C 26.23723,9.8771915 26.176016,9.4810855 25.599904,9.4810855 l -4.408412,-1e-6 c -0.258531,0 -0.275621,-0.239518 -0.183691,-0.369819 0.192521,-0.272881 0.49527,-0.42393 0.754199,-0.42393 h 4.264537 c 0.379473,1e-6 1.094275,-0.06253 1.754063,-0.997721 l 0.353215,-0.500648 c 0.343427,-0.486775 0.282213,-0.882881 -0.293899,-0.882881 l -4.408411,-1e-6 c -0.258531,0 -0.275621,-0.239518 -0.183691,-0.369819 0.192521,-0.272881 0.49527,-0.42393 0.754199,-0.42393 l 4.264529,-1e-6 c 0.379473,1e-6 1.094275,-0.06254 1.754063,-0.997721 l 0.353223,-0.500647 c 0.343427,-0.486775 0.282213,-0.882881 -0.293899,-0.882881 h -8.401296 c -0.379473,-1e-6 -1.094275,0.06254 -1.754063,0.997721 z M 35.677879,3.4224165 c 0.114287,0.202137 0.05864,0.64831 -0.176548,0.981662 l -0.523302,0.741726 c -0.15379,0.217985 -0.18919,0.358615 -0.09916,0.437225 0.09003,0.07861 0.309204,-0.05654 0.406344,-0.112521 l 3.386127,-1.951388 c 0.442454,-0.254982 0.850032,-0.388035 1.312126,-0.388034 l 3.741374,-2e-6 c 0.368644,0 0.846794,0.552176 0.158262,0.948969 l -6.358711,3.664457 c -0.355295,0.204751 -0.424112,0.589446 -0.241535,0.904997 l 1.439982,2.4887555 c 0.224324,0.387705 -0.09705,0.702782 -0.52819,0.702782 h -3.58553 c -0.21386,0 -0.524781,-0.03907 -0.656031,-0.242272 L 32.505522,9.3576075 c -0.06963,-0.107801 -0.313949,-0.262274 -0.682275,0.259792 l -0.993249,1.3979955 c -0.616288,0.873528 -1.251168,0.822208 -1.629179,0.822208 l -2.74304,0.0026 c -0.467946,10e-7 -0.530044,-0.396121 -0.21167,-0.847386 L 33.301785,0.9920665 c 0.278836,-0.395224 0.678244,-0.572618 0.946181,-0.09872 z m 3.626933,8.1397385 c -0.16203,0.229668 -0.188292,0.570626 -0.07474,0.771461 l 1.520757,2.689792 c 0.163854,0.289805 0.580586,0.219336 0.852993,-0.166772 l 2.28763,-3.242494 c 0.343427,-0.486775 0.282213,-0.882881 -0.293899,-0.882881 l -3.079914,1.3e-5 c -0.380755,0 -0.746414,0.169832 -0.973211,0.491295 z m 1.79607,-2.5457085 c -0.343427,0.486775 -0.282213,0.882881 0.293899,0.882881 l 2.801347,-1.3e-5 c 0.71668,-10e-7 1.36583,-0.652953 1.501415,-0.845132 l 3.555928,-5.040182 c 0.343427,-0.486775 0.282213,-0.882881 -0.293899,-0.882881 l -2.648183,0.0042 c -0.379473,-1e-6 -1.094275,0.06254 -1.754063,0.997721 z" />
</svg>
